HIERARCHY
ROOT hip
{
  OFFSET 0 0 0
  CHANNELS 6 Xposition Yposition Zposition Zrotation Yrotation Xrotation
  JOINT abdomen
  {
    OFFSET 0 20.6881 -0.73152
    CHANNELS 3 Zrotation Xrotation Yrotation
    JOINT chest
    {
      OFFSET 0 11.7043 -0.48768
      CHANNELS 3 Zrotation Xrotation Yrotation
      JOINT neck
      {
        OFFSET 0 22.1894 -2.19456
        CHANNELS 3 Zrotation Xrotation Yrotation
        JOINT head
        {
          OFFSET -0.24384 7.07133 1.2192
          CHANNELS 3 Zrotation Xrotation Yrotation
          JOINT leftEye
          {
            OFFSET 4.14528 8.04674 8.04672
            CHANNELS 3 Zrotation Xrotation Yrotation
            End Site
            {
              OFFSET 1 0 0
            }
          }
          JOINT rightEye
          {
            OFFSET -3.6576 8.04674 8.04672
            CHANNELS 3 Zrotation Xrotation Yrotation
            End Site
            {
              OFFSET 1 0 0
            }
          }
        }
      }
      JOINT rCollar
      {
        OFFSET -2.68224 19.2634 -4.8768
        CHANNELS 3 Zrotation Xrotation Yrotation
        JOINT rShldr
        {
          OFFSET -8.77824 -1.95073 1.46304
          CHANNELS 3 Zrotation Xrotation Yrotation
          JOINT rForeArm
          {
            OFFSET -28.1742 -1.7115 0.48768
            CHANNELS 3 Zrotation Xrotation Yrotation
            JOINT rHand
            {
              OFFSET -22.5879 0.773209 7.07136
              CHANNELS 3 Zrotation Xrotation Yrotation
              JOINT rThumb1
              {
                OFFSET -1.2192 -0.487915 3.41376
                CHANNELS 3 Zrotation Xrotation Yrotation
                JOINT rThumb2
                {
                  OFFSET -3.37035 -0.52449 3.41376
                  CHANNELS 3 Zrotation Xrotation Yrotation
                  End Site
                  {
                    OFFSET -1.78271 -1.18214 1.43049
                  }
                }
              }
              JOINT rIndex1
              {
                OFFSET -7.75947 0.938293 5.60832
                CHANNELS 3 Zrotation Xrotation Yrotation
                JOINT rIndex2
                {
                  OFFSET -2.54057 -0.884171 1.56538
                  CHANNELS 3 Zrotation Xrotation Yrotation
                  End Site
                  {
                    OFFSET -1.62519 -0.234802 1.16502
                  }
                }
              }
              JOINT rMid1
              {
                OFFSET -8.24714 1.18213 3.41376
                CHANNELS 3 Zrotation Xrotation Yrotation
                JOINT rMid2
                {
                  OFFSET -3.10165 -0.590103 1.0647
                  CHANNELS 3 Zrotation Xrotation Yrotation
                  End Site
                  {
                    OFFSET -2.48547 -0.328903 0.83742
                  }
                }
              }
              JOINT rRing1
              {
                OFFSET -8.82822 0.546677 1.51678
                CHANNELS 3 Zrotation Xrotation Yrotation
                JOINT rRing2
                {
                  OFFSET -2.60934 -0.819778 -0.0198488
                  CHANNELS 3 Zrotation Xrotation Yrotation
                  End Site
                  {
                    OFFSET -2.33842 -0.294052 0.168128
                  }
                }
              }
              JOINT rPinky1
              {
                OFFSET -8.27202 -0.0477905 -0.4584
                CHANNELS 3 Zrotation Xrotation Yrotation
                JOINT rPinky2
                {
                  OFFSET -1.82734 -0.647385 -0.700984
                  CHANNELS 3 Zrotation Xrotation Yrotation
                  End Site
                  {
                    OFFSET -1.69225 -0.51767 -0.607171
                  }
                }
              }
            }
          }
        }
      }
      JOINT lCollar
      {
        OFFSET 2.68224 19.2634 -4.8768
        CHANNELS 3 Zrotation Xrotation Yrotation
        JOINT lShldr
        {
          OFFSET 8.77824 -1.95073 1.46304
          CHANNELS 3 Zrotation Xrotation Yrotation
          JOINT lForeArm
          {
            OFFSET 28.1742 -1.7115 0.48768
            CHANNELS 3 Zrotation Xrotation Yrotation
            JOINT lHand
            {
              OFFSET 22.5879 0.773209 7.07136
              CHANNELS 3 Zrotation Xrotation Yrotation
              JOINT lThumb1
              {
                OFFSET 1.2192 -0.487915 3.41376
                CHANNELS 3 Zrotation Xrotation Yrotation
                JOINT lThumb2
                {
                  OFFSET 3.37035 -0.52449 3.41376
                  CHANNELS 3 Zrotation Xrotation Yrotation
                  End Site
                  {
                    OFFSET 1.78271 -1.18214 1.43049
                  }
                }
              }
              JOINT lIndex1
              {
                OFFSET 7.75947 0.938293 5.60832
                CHANNELS 3 Zrotation Xrotation Yrotation
                JOINT lIndex2
                {
                  OFFSET 2.54057 -0.884171 1.56538
                  CHANNELS 3 Zrotation Xrotation Yrotation
                  End Site
                  {
                    OFFSET 1.62519 -0.234802 1.16502
                  }
                }
              }
              JOINT lMid1
              {
                OFFSET 8.24714 1.18213 3.41376
                CHANNELS 3 Zrotation Xrotation Yrotation
                JOINT lMid2
                {
                  OFFSET 3.10165 -0.590103 1.0647
                  CHANNELS 3 Zrotation Xrotation Yrotation
                  End Site
                  {
                    OFFSET 2.48547 -0.328903 0.83742
                  }
                }
              }
              JOINT lRing1
              {
                OFFSET 8.82822 0.546677 1.51678
                CHANNELS 3 Zrotation Xrotation Yrotation
                JOINT lRing2
                {
                  OFFSET 2.60934 -0.819778 -0.0198488
                  CHANNELS 3 Zrotation Xrotation Yrotation
                  End Site
                  {
                    OFFSET 2.33842 -0.294052 0.168128
                  }
                }
              }
              JOINT lPinky1
              {
                OFFSET 8.27202 -0.0477905 -0.4584
                CHANNELS 3 Zrotation Xrotation Yrotation
                JOINT lPinky2
                {
                  OFFSET 1.82734 -0.647385 -0.700984
                  CHANNELS 3 Zrotation Xrotation Yrotation
                  End Site
                  {
                    OFFSET 1.69225 -0.51767 -0.607171
                  }
                }
              }
            }
          }
        }
      }
    }
  }
  JOINT rButtock
  {
    OFFSET -8.77824 4.35084 1.2192
    CHANNELS 3 Zrotation Xrotation Yrotation
    JOINT rThigh
    {
      OFFSET 0 -1.70687 -2.19456
      CHANNELS 3 Zrotation Xrotation Yrotation
      JOINT rShin
      {
        OFFSET 0 -36.8199 0.73152
        CHANNELS 3 Zrotation Xrotation Yrotation
        JOINT rFoot
        {
          OFFSET 0.73152 -45.1104 -5.12064
          CHANNELS 3 Zrotation Xrotation Yrotation
          End Site
          {
            OFFSET -1.1221 -3.69964 12.103
          }
        }
      }
    }
  }
  JOINT lButtock
  {
    OFFSET 8.77824 4.35084 1.2192
    CHANNELS 3 Zrotation Xrotation Yrotation
    JOINT lThigh
    {
      OFFSET 0 -1.70687 -2.19456
      CHANNELS 3 Zrotation Xrotation Yrotation
      JOINT lShin
      {
        OFFSET 0 -36.8199 0.73152
        CHANNELS 3 Zrotation Xrotation Yrotation
        JOINT lFoot
        {
          OFFSET -0.73152 -45.1104 -5.12064
          CHANNELS 3 Zrotation Xrotation Yrotation
          End Site
          {
            OFFSET 1.1221 -3.69964 12.103
          }
        }
      }
    }
  }
}
MOTION
Frames:	4
Frame Time:	0.00833333
160.944 85.5386 10.955 0.0 0.0 0.0 2.42165 -0.000250522 0.065534 0.667743 0.0102412 0.115572 3.12535e-14 0.0 -5.46658e-16 9.38574e-14 3.18055e-15 -1.54213e-15 -0.0 0.0 0.0 -0.0 0.0 0.0 1.52555e-14 -7.06617e-17 -1.49089e-16 3.33262e-13 -1.62134e-15 -3.77691e-15 5.7172e-12 -1.75447e-12 -1.39944e-13 6.53152e-11 1.42432e-12 -1.01142e-12 1.54082e-10 -7.14174e-13 -2.48401e-12 2.66086e-10 -1.22769e-12 -4.29852e-12 1.54087e-10 -7.13637e-13 -2.48719e-12 7.73091 5.47488 0.417314 1.54081e-10 -7.14631e-13 -2.47765e-12 2.90554 0.965183 0.102902 1.54087e-10 -7.14035e-13 -2.48322e-12 10.2786 0.731801 0.0259123 1.54077e-10 -7.11649e-13 -2.47447e-12 2.22167 -0.733487 -0.20892 1.5259e-14 -7.18265e-17 -3.47873e-16 3.28489e-13 -1.73315e-15 -5.56597e-15 5.7007e-12 1.65468e-12 -1.68569e-13 6.53137e-11 -1.9866e-12 -9.66889e-13 1.54055e-10 -7.18894e-13 -2.49992e-12 2.66056e-10 -1.2436e-12 -4.30806e-12 1.54051e-10 -7.18805e-13 -2.49037e-12 -7.73091 5.47488 -0.417314 1.54054e-10 -7.18507e-13 -2.49355e-12 -2.90554 0.965183 -0.102902 1.54047e-10 -7.18408e-13 -2.49435e-12 -10.2786 0.731801 -0.0259123 1.54059e-10 -7.17613e-13 -2.5031e-12 -2.22167 -0.733487 0.20892 -2.03217e-16 0.0 -3.88251e-19 2.3188 -8.1335 -0.241889 0.0061412 9.15841 0.156777 -0.521047 -1.03424 0.037713 2.03217e-16 0.0 3.88251e-19 1.36915 -1.92971 -0.00560465 0.00873875 -2.07863 0.0718665 0.469014 3.99894 -0.133966
164.545 85.2346 6.92029 -61.0578 86.2434 -53.5862 2.24262 -2.59932 0.558593 0.944225 1.03753 0.270163 -1.34835 -2.8851 -0.945309 1.01912 7.48012 -1.02116 -0.0 0.0 0.0 -0.0 0.0 0.0 -1.73654e-14 -1.35289e-12 3.73059e-14 23.2505 5.73945 -0.240061 -3.42941 -1.42823 5.48954 0.180027 9.43723 1.2623 2.78469e-09 5.0728e-10 -6.06316e-10 4.79036e-09 8.77543e-10 -1.11994e-09 2.78469e-09 5.07279e-10 -6.06321e-10 7.73091 5.47488 0.417314 2.78469e-09 5.07279e-10 -6.06311e-10 2.90554 0.965183 0.102902 2.78469e-09 5.0728e-10 -6.06315e-10 10.2786 0.731801 0.0259123 2.78468e-09 5.07282e-10 -6.06306e-10 2.22167 -0.733487 -0.20892 -1.73866e-14 -1.35289e-12 3.70912e-14 -21.0963 4.33687 -2.4611 2.3391 -0.847989 -3.85359 -0.010035 -2.22469 0.311812 6.71367e-10 7.28308e-10 3.42803e-09 1.14588e-09 1.25989e-09 5.92601e-09 6.7136e-10 7.28308e-10 3.42805e-09 -7.73091 5.47488 -0.417314 6.71366e-10 7.28307e-10 3.42804e-09 -2.90554 0.965183 -0.102902 6.71359e-10 7.28307e-10 3.42804e-09 -10.2786 0.731801 -0.0259123 6.7137e-10 7.28308e-10 3.42803e-09 -2.22167 -0.733487 0.20892 -2.03217e-16 0.0 -3.88251e-19 4.28069 -7.02642 8.00598 0.0241329 8.87972 0.289252 -0.10146 -12.9218 2.57823 2.03217e-16 0.0 3.88251e-19 0.42236 -1.10979 -1.53549 0.012327 -1.92616 0.106143 0.356775 5.97412 4.73834
164.274 84.7733 6.63891 -40.773 86.9118 -32.101 2.10514 -5.34637 1.08717 1.22599 2.11963 0.435193 -2.87554 -5.93062 -1.95245 2.39632 15.38 -2.16077 -0.0 0.0 0.0 -0.0 0.0 0.0 -5.45524e-14 -2.85767e-12 7.95294e-14 47.8964 11.8351 -0.516482 -6.77146 -2.90213 11.3244 -0.106689 19.4171 2.71851 5.64487e-09 1.05612e-09 -1.24264e-09 9.70999e-09 1.827e-09 -2.29813e-09 5.64488e-09 1.05612e-09 -1.24265e-09 7.73091 5.47488 0.417314 5.64487e-09 1.05612e-09 -1.24264e-09 2.90554 0.965183 0.102902 5.64488e-09 1.05612e-09 -1.24264e-09 10.2786 0.731801 0.0259123 5.64487e-09 1.05613e-09 -1.24263e-09 2.22167 -0.733487 -0.20892 -5.46026e-14 -2.85767e-12 7.92965e-14 -42.9903 8.88495 -5.1022 4.68291 -1.72901 -7.9215 0.0057467 -4.56455 0.641361 1.25507e-09 1.53641e-09 7.16158e-09 2.13922e-09 2.65795e-09 1.23803e-08 1.25507e-09 1.53641e-09 7.1616e-09 -7.73091 5.47488 -0.417314 1.25507e-09 1.5364e-09 7.16159e-09 -2.90554 0.965183 -0.102902 1.25507e-09 1.5364e-09 7.16159e-09 -10.2786 0.731801 -0.0259123 1.25508e-09 1.5364e-09 7.16158e-09 -2.22167 -0.733487 0.20892 -2.03217e-16 0.0 -3.88251e-19 6.02199 -5.74158 16.7281 0.0446525 8.5882 0.429783 1.5978 -25.4559 5.66386 2.03217e-16 0.0 3.88251e-19 -0.52941 -0.241872 -3.15111 0.0159122 -1.7656 0.142231 -0.12831 7.98271 9.92909
164.24 84.3662 6.22502 -1.8705 86.8871 7.2244 2.01985 -7.79499 1.55738 1.48053 3.09197 0.580056 -4.33332 -8.64583 -2.86491 3.91238 22.4106 -3.2858 -0.0 0.0 0.0 -0.0 0.0 0.0 -8.26071e-14 -4.05854e-12 1.12216e-13 69.9015 17.2171 -0.750192 -9.47798 -4.12762 16.5075 -0.849629 28.2529 4.24173 8.04589e-09 1.52327e-09 -1.81398e-09 1.38389e-08 2.63509e-09 -3.35121e-09 8.0459e-09 1.52327e-09 -1.81399e-09 7.73091 5.47488 0.417314 8.04589e-09 1.52327e-09 -1.81398e-09 2.90554 0.965183 0.102902 8.0459e-09 1.52327e-09 -1.81398e-09 10.2786 0.731801 0.0259123 8.04589e-09 1.52327e-09 -1.81397e-09 2.22167 -0.733487 -0.20892 -8.26778e-14 -4.05853e-12 1.11969e-13 -62.1501 12.9134 -7.55427 6.67739 -2.49798 -11.5707 0.0429557 -6.67327 0.941106 1.70599e-09 2.18636e-09 1.02891e-08 2.90552e-09 3.78216e-09 1.77867e-08 1.70598e-09 2.18636e-09 1.02891e-08 -7.73091 5.47488 -0.417314 1.70599e-09 2.18636e-09 1.02891e-08 -2.90554 0.965183 -0.102902 1.70598e-09 2.18636e-09 1.02891e-08 -10.2786 0.731801 -0.0259123 1.70599e-09 2.18636e-09 1.02891e-08 -2.22167 -0.733487 0.20892 -2.03217e-16 0.0 -3.88251e-19 7.24937 -4.5714 24.3979 0.0640234 8.32222 0.55363 4.5453 -36.3734 9.28358 2.03217e-16 0.0 3.88251e-19 -1.33999 0.527148 -4.59459 0.0189559 -1.6212 0.174679 -0.874154 9.66847 14.6171
